# xmcd
#
# Track frame offsets:
#	150
#	14945
#	26343
#	41401
#	55203
#	64818
#	83565
#	93184
#	101988
#	110718
#	122890
#	135699
#	143863
#	156305
#	169098
#	182816
#	192555
#	218906
#
# Disc length: 3120 seconds
# Revision: 0
# Processed by: cddbd v1.5.2PL0 Copyright (c) Steve Scherf et al.
# Submitted via: dBpowerAMP V12.0
#
DISCID=0b0c2e12
DTITLE=Johnny Cash - Unearthed [Disc 1]
DYEAR=2003
DGENRE=Country
TTITLE0=Long Black Veil
TTITLE1=Flesh and Blood
TTITLE2=Just the Other Side of Nowhere
TTITLE3=If I Give My Soul
TTITLE4=Understand Your Man
TTITLE5=Banks of the Ohio
TTITLE6=Two Timin' Woman
TTITLE7=The Caretaker
TTITLE8=Old Chunk of Coal
TTITLE9=I'm Going to Memphis
TTITLE10=Breaking Bread
TTITLE11=Waiting for a Train
TTITLE12=Casey's Last Ride
TTITLE13=No Earthly Good
TTITLE14=The Fourth Man in the Fire
TTITLE15=Dark as a Dungeon
TTITLE16=Book Review
TTITLE17=Down There By the Train
EXTD=
EXTT0=
EXTT1=
EXTT2=
EXTT3=
EXTT4=
EXTT5=
EXTT6=
EXTT7=
EXTT8=
EXTT9=
EXTT10=
EXTT11=
EXTT12=
EXTT13=
EXTT14=
EXTT15=
EXTT16=
EXTT17=
PLAYORDER=
